<?xml version="1.0" encoding="UTF-8"?>
<svg version="1.1" xmlns="http://www.w3.org/2000/svg" width="512" height="512">
<path d="M0 0 C7.5109103 7.85231531 10.70608725 17.66292059 13.9375 27.8125 C14.36547504 29.11948867 14.79450732 30.42613162 15.22460938 31.73242188 C21.75 51.68330237 21.75 51.68330237 21.75 56.875 C22.80799805 56.86452637 23.86599609 56.85405273 24.95605469 56.84326172 C28.93697636 56.8066562 32.91788363 56.78395427 36.89892578 56.76513672 C38.61151646 56.75517045 40.32409054 56.74159253 42.03662109 56.72412109 C70.35798911 56.44272819 70.35798911 56.44272819 80.75 64.875 C87.86501879 72.13768899 90.89375378 78.76962419 90.9375 88.875 C90.88976302 90.87540682 90.83228759 92.87571638 90.75 94.875 C91.44222656 95.1328125 92.13445312 95.390625 92.84765625 95.65625 C123.3721628 108.47407779 151.11554368 134.92595808 164.28125 165.22265625 C173.45603026 188.03760183 174.27722879 214.76452734 164.83203125 237.6328125 C156.20791878 257.40612424 143.00223861 273.91954535 125.75 286.875 C125.16041504 287.32311035 124.57083008 287.7712207 123.96337891 288.23291016 C112.24687773 297.07188411 99.79910586 304.19269438 86.75 310.875 C85.6367334 311.44710205 85.6367334 311.44710205 84.50097656 312.03076172 C38.29998018 335.47717284 -17.5172018 346.66015208 -69.25 345.875 C-69.12625 346.9475 -69.0025 348.02 -68.875 349.125 C-68.88874239 356.8619677 -73.45489672 364.34833787 -78.625 369.875 C-86.44400811 376.99898516 -95.02793477 378.35440451 -105.25 378.13671875 C-117.28480884 377.56667813 -127.45811242 367.70201508 -136.53125 360.484375 C-137.24466553 359.92556641 -137.95808105 359.36675781 -138.69311523 358.79101562 C-140.08560987 357.69639711 -141.46590197 356.58604013 -142.83227539 355.45898438 C-143.46641357 354.96205078 -144.10055176 354.46511719 -144.75390625 353.953125 C-145.30892822 353.50356445 -145.8639502 353.05400391 -146.43579102 352.59082031 C-148.33384663 351.63150563 -148.33384663 351.63150563 -150.71826172 352.55908203 C-153.14288302 353.81932396 -155.12997155 355.13970318 -157.25390625 356.8515625 C-158.35653809 357.72893066 -158.35653809 357.72893066 -159.48144531 358.62402344 C-160.63531738 359.55263184 -160.63531738 359.55263184 -161.8125 360.5 C-176.01157229 371.72249623 -186.55415855 379.34755381 -205.25 377.875 C-213.6480561 375.89130075 -220.51490953 369.89429225 -225.125 362.75 C-228.50203495 357.0586334 -229.6090992 352.24936697 -229.5625 345.625 C-229.56121094 344.87009277 -229.55992187 344.11518555 -229.55859375 343.33740234 C-229.46054941 337.64715411 -228.43702431 333.16030875 -226.25 327.875 C-226.25 326.885 -226.25 325.895 -226.25 324.875 C-226.87640381 324.64014893 -227.50280762 324.40529785 -228.14819336 324.16333008 C-271.1451744 307.88882651 -313.54790547 283.91748431 -334.25 240.875 C-343.65110067 219.6597403 -344.91188512 192.84065208 -337.25 170.875 C-335.50597325 166.38174377 -333.51718408 162.12664975 -331.25 157.875 C-330.70214844 156.84632813 -330.15429688 155.81765625 -329.58984375 154.7578125 C-325.7567781 147.89496603 -321.38408698 141.81639041 -316.25 135.875 C-315.43789063 134.91722656 -314.62578125 133.95945313 -313.7890625 132.97265625 C-307.05268162 125.20822322 -299.57144863 118.88269094 -291.25 112.875 C-290.39245117 112.25310791 -290.39245117 112.25310791 -289.51757812 111.61865234 C-242.3746199 77.86675575 -182.31730319 62.8466358 -125.25 58.875 C-124.50878906 58.8224707 -123.76757812 58.76994141 -123.00390625 58.71582031 C-103.79589941 57.42197175 -84.49224726 57.3105414 -65.25 56.875 C-64.75185791 55.19712402 -64.75185791 55.19712402 -64.24365234 53.48535156 C-62.99112681 49.27737288 -61.7239508 45.07391865 -60.45263672 40.87158203 C-59.90770689 39.06318658 -59.36658932 37.25363728 -58.82958984 35.44287109 C-50.60257217 7.72839255 -50.60257217 7.72839255 -42.25 0.875 C-41.1053125 -0.176875 -41.1053125 -0.176875 -39.9375 -1.25 C-27.81528931 -9.70735629 -11.89133111 -7.77510111 0 0 Z " fill="#000000" transform="translate(341.25,70.125)"/>
<path d="M0 0 C7.5109103 7.85231531 10.70608725 17.66292059 13.9375 27.8125 C14.36547504 29.11948867 14.79450732 30.42613162 15.22460938 31.73242188 C21.75 51.68330237 21.75 51.68330237 21.75 56.875 C22.80799805 56.86452637 23.86599609 56.85405273 24.95605469 56.84326172 C28.93697636 56.8066562 32.91788363 56.78395427 36.89892578 56.76513672 C38.61151646 56.75517045 40.32409054 56.74159253 42.03662109 56.72412109 C70.35798911 56.44272819 70.35798911 56.44272819 80.75 64.875 C87.86501879 72.13768899 90.89375378 78.76962419 90.9375 88.875 C90.88976302 90.87540682 90.83228759 92.87571638 90.75 94.875 C91.44222656 95.1328125 92.13445312 95.390625 92.84765625 95.65625 C123.3721628 108.47407779 151.11554368 134.92595808 164.28125 165.22265625 C173.45603026 188.03760183 174.27722879 214.76452734 164.83203125 237.6328125 C156.20791878 257.40612424 143.00223861 273.91954535 125.75 286.875 C125.16041504 287.32311035 124.57083008 287.7712207 123.96337891 288.23291016 C112.24687773 297.07188411 99.79910586 304.19269438 86.75 310.875 C85.6367334 311.44710205 85.6367334 311.44710205 84.50097656 312.03076172 C38.29998018 335.47717284 -17.5172018 346.66015208 -69.25 345.875 C-69.12625 346.9475 -69.0025 348.02 -68.875 349.125 C-68.88874239 356.8619677 -73.45489672 364.34833787 -78.625 369.875 C-86.44400811 376.99898516 -95.02793477 378.35440451 -105.25 378.13671875 C-117.28480884 377.56667813 -127.45811242 367.70201508 -136.53125 360.484375 C-137.24466553 359.92556641 -137.95808105 359.36675781 -138.69311523 358.79101562 C-140.08560987 357.69639711 -141.46590197 356.58604013 -142.83227539 355.45898438 C-143.46641357 354.96205078 -144.10055176 354.46511719 -144.75390625 353.953125 C-145.30892822 353.50356445 -145.8639502 353.05400391 -146.43579102 352.59082031 C-148.33384663 351.63150563 -148.33384663 351.63150563 -150.71826172 352.55908203 C-153.14288302 353.81932396 -155.12997155 355.13970318 -157.25390625 356.8515625 C-158.35653809 357.72893066 -158.35653809 357.72893066 -159.48144531 358.62402344 C-160.63531738 359.55263184 -160.63531738 359.55263184 -161.8125 360.5 C-176.01157229 371.72249623 -186.55415855 379.34755381 -205.25 377.875 C-213.6480561 375.89130075 -220.51490953 369.89429225 -225.125 362.75 C-228.50203495 357.0586334 -229.6090992 352.24936697 -229.5625 345.625 C-229.56121094 344.87009277 -229.55992187 344.11518555 -229.55859375 343.33740234 C-229.46054941 337.64715411 -228.43702431 333.16030875 -226.25 327.875 C-226.25 326.885 -226.25 325.895 -226.25 324.875 C-226.87640381 324.64014893 -227.50280762 324.40529785 -228.14819336 324.16333008 C-271.1451744 307.88882651 -313.54790547 283.91748431 -334.25 240.875 C-343.65110067 219.6597403 -344.91188512 192.84065208 -337.25 170.875 C-335.50597325 166.38174377 -333.51718408 162.12664975 -331.25 157.875 C-330.70214844 156.84632813 -330.15429688 155.81765625 -329.58984375 154.7578125 C-325.7567781 147.89496603 -321.38408698 141.81639041 -316.25 135.875 C-315.43789063 134.91722656 -314.62578125 133.95945313 -313.7890625 132.97265625 C-307.05268162 125.20822322 -299.57144863 118.88269094 -291.25 112.875 C-290.39245117 112.25310791 -290.39245117 112.25310791 -289.51757812 111.61865234 C-242.3746199 77.86675575 -182.31730319 62.8466358 -125.25 58.875 C-124.50878906 58.8224707 -123.76757812 58.76994141 -123.00390625 58.71582031 C-103.79589941 57.42197175 -84.49224726 57.3105414 -65.25 56.875 C-64.75185791 55.19712402 -64.75185791 55.19712402 -64.24365234 53.48535156 C-62.99112681 49.27737288 -61.7239508 45.07391865 -60.45263672 40.87158203 C-59.90770689 39.06318658 -59.36658932 37.25363728 -58.82958984 35.44287109 C-50.60257217 7.72839255 -50.60257217 7.72839255 -42.25 0.875 C-41.1053125 -0.176875 -41.1053125 -0.176875 -39.9375 -1.25 C-27.81528931 -9.70735629 -11.89133111 -7.77510111 0 0 Z M-173.25 97.875 C-174.16410645 98.07818848 -175.07821289 98.28137695 -176.02001953 98.49072266 C-199.58446936 103.8214877 -222.5613294 111.16574103 -244.25 121.875 C-245.17208252 122.32673584 -245.17208252 122.32673584 -246.11279297 122.78759766 C-259.52482203 129.44242124 -272.02065262 137.99026704 -283.25 147.875 C-283.94351563 148.473125 -284.63703125 149.07125 -285.3515625 149.6875 C-294.60912142 158.24428753 -301.87493889 170.11924636 -306.25 181.875 C-306.56710937 182.69613281 -306.88421875 183.51726562 -307.2109375 184.36328125 C-312.3628465 199.93717131 -309.55674866 216.73340391 -302.640625 231.25390625 C-282.33974751 267.71167476 -239.10156764 287.40910137 -200.640625 298.55078125 C-192.07063032 301.00811832 -192.07063032 301.00811832 -183.25 301.875 C-182.74411853 299.95987728 -182.24551609 298.04283078 -181.75 296.125 C-181.33234375 294.52398437 -181.33234375 294.52398437 -180.90625 292.890625 C-180.10824011 289.73794698 -180.10824011 289.73794698 -180.25 285.875 C-181.66242701 284.2894027 -181.66242701 284.2894027 -183.66796875 282.984375 C-184.41788086 282.4473999 -185.16779297 281.9104248 -185.94042969 281.35717773 C-186.76446289 280.78555908 -187.58849609 280.21394043 -188.4375 279.625 C-190.17714418 278.38341788 -191.91537233 277.13984982 -193.65234375 275.89453125 C-195.02302002 274.91734131 -195.02302002 274.91734131 -196.42138672 273.92041016 C-201.18421093 270.4763448 -205.83909721 266.89264378 -210.5 263.3125 C-212.21279753 261.99772793 -213.92630393 260.68387866 -215.640625 259.37109375 C-216.36282227 258.81607178 -217.08501953 258.2610498 -217.82910156 257.68920898 C-220.93053134 255.36501327 -224.09624448 253.12768251 -227.25 250.875 C-207.78 250.545 -188.31 250.215 -168.25 249.875 C-165.22767411 240.80802232 -162.3100916 231.88409892 -159.8125 222.6875 C-157.3519854 213.74128983 -154.78664194 204.83874565 -152.02758789 195.97973633 C-151.06574068 192.84787198 -150.25 190.17179487 -150.25 186.875 C-149.59 186.875 -148.93 186.875 -148.25 186.875 C-148.15203125 187.80570312 -148.0540625 188.73640625 -147.953125 189.6953125 C-147.20996257 194.87406324 -145.56709859 199.77184189 -144 204.75 C-143.36130119 206.81098794 -142.72328517 208.87218758 -142.0859375 210.93359375 C-141.61559082 212.44928955 -141.61559082 212.44928955 -141.13574219 213.99560547 C-139.56114584 219.11434563 -138.0748905 224.25817907 -136.5859375 229.40234375 C-134.5414793 236.24709416 -132.38074464 243.05661714 -130.25 249.875 C-101.045 250.37 -101.045 250.37 -71.25 250.875 C-86.79365208 262.71778254 -102.32557792 274.55143338 -118.25 285.875 C-117.65317702 292.34184143 -116.12545517 298.18793197 -114.1875 304.375 C-113.90583984 305.2928125 -113.62417969 306.210625 -113.33398438 307.15625 C-112.6451987 309.39772203 -111.95044695 311.63715031 -111.25 313.875 C-69.14166217 314.52747211 -69.14166217 314.52747211 -27.25 310.875 C-26.18201172 310.72514648 -25.11402344 310.57529297 -24.01367188 310.42089844 C-17.05617168 309.41630537 -10.14875354 308.22338168 -3.25 306.875 C-2.36151367 306.70274902 -1.47302734 306.53049805 -0.55761719 306.35302734 C46.21628472 297.05149672 99.92814773 278.29204732 128.39453125 237.51953125 C138.01390053 222.59124424 141.31906589 204.9750309 137.67456055 187.62768555 C131.23784973 161.1613503 109.97923104 143.45156026 87.78808594 129.65527344 C77.69208413 123.5422393 67.11189559 118.49258915 56.22412109 113.95898438 C53.80178275 112.89768753 51.48589356 111.71226705 49.14453125 110.484375 C44.76981234 108.37254032 40.69693449 106.45318456 35.75 106.875 C29.22966563 109.59243854 23.99720031 114.35498217 18.81884766 119.05322266 C15.95007238 121.57939697 12.90187822 123.71669399 9.75 125.875 C10.32588243 130.42704341 11.15545026 134.7023772 12.453125 139.1015625 C12.80955078 140.3174707 13.16597656 141.53337891 13.53320312 142.78613281 C13.93856931 144.14915779 14.34418093 145.51210979 14.75 146.875 C15.20272138 148.40715347 15.65518516 149.93938309 16.10742188 151.47167969 C17.56438767 156.39994567 19.03172303 161.32509448 20.5 166.25 C21.01178921 167.96872902 21.52350839 169.68747889 22.03515625 171.40625 C23.27263266 175.56274016 24.51104814 179.71894941 25.75 183.875 C22.91144698 182.549429 20.53946081 181.05772156 18.08984375 179.109375 C17.38754639 178.55556152 16.68524902 178.00174805 15.96166992 177.43115234 C15.21119385 176.83512207 14.46071777 176.2390918 13.6875 175.625 C6.24132723 169.76594287 -1.31381041 164.08060014 -8.96704102 158.49511719 C-12.79573965 155.69818761 -16.57905492 152.87916664 -20.25 149.875 C-24.88250567 151.36711793 -28.19804957 154.05239178 -31.875 157.125 C-40.04501095 163.81227091 -48.52255872 170.04060115 -57.05029297 176.26074219 C-60.4710505 178.77106946 -63.86248635 181.32006475 -67.25 183.875 C-66.01825515 176.9124785 -64.23643265 170.32631288 -62 163.625 C-59.4234148 155.71310294 -57.01599388 147.77414478 -54.8125 139.75 C-54.5537207 138.82026367 -54.29494141 137.89052734 -54.02832031 136.93261719 C-53.67592285 135.63179199 -53.67592285 135.63179199 -53.31640625 134.3046875 C-53.10959229 133.54397949 -52.90277832 132.78327148 -52.68969727 131.99951172 C-52.11488743 129.58375768 -52.11488743 129.58375768 -52.25 125.875 C-53.66242701 124.2894027 -53.66242701 124.2894027 -55.66796875 122.984375 C-56.41780029 122.44748047 -57.16763184 121.91058594 -57.94018555 121.35742188 C-58.76429932 120.78572266 -59.58841309 120.21402344 -60.4375 119.625 C-62.17842035 118.38207892 -63.91795187 117.13721076 -65.65625 115.890625 C-66.57019531 115.23900391 -67.48414063 114.58738281 -68.42578125 113.91601562 C-73.16427354 110.49158655 -77.79874501 106.93274719 -82.4375 103.375 C-84.94079637 101.45909941 -87.44400128 99.54359834 -89.95825195 97.64208984 C-91.45033899 96.49159171 -92.91954168 95.31058016 -94.36010742 94.09619141 C-98.86404449 90.39157853 -102.26472284 88.95768272 -108.1875 89.25 C-109.36723389 89.2794873 -109.36723389 89.2794873 -110.57080078 89.30957031 C-131.48780236 90.14360019 -152.8525154 93.28879156 -173.25 97.875 Z " fill="#000000" transform="translate(341.25,70.125)"/>
<path d="M0 0 C1.43651408 0.50244272 2.85963105 1.04429763 4.26953125 1.6171875 C5.04490234 1.90561523 5.82027344 2.19404297 6.61914062 2.49121094 C9.1273745 3.44658539 11.60485543 4.45911166 14.08203125 5.4921875 C14.90525879 5.8315332 15.72848633 6.17087891 16.57666016 6.52050781 C47.00260399 19.23422705 81.43146414 38.36435718 94.8984375 70.2578125 C101.59201739 88.54917934 100.59671634 105.88787099 92.45703125 123.5546875 C73.06272065 160.23736083 30.45402961 178.24578565 -6.91796875 190.4921875 C-7.79066406 190.77932617 -8.66335938 191.06646484 -9.5625 191.36230469 C-33.51646711 199.0830818 -58.9069684 203.18487628 -83.91796875 205.4921875 C-84.86220703 205.58862549 -85.80644531 205.68506348 -86.77929688 205.78442383 C-99.58345482 206.91742071 -112.45170703 206.59990321 -125.29296875 206.5546875 C-127.78255118 206.54966295 -130.2721346 206.54510173 -132.76171875 206.54101562 C-138.81382375 206.53008456 -144.86589159 206.51342201 -150.91796875 206.4921875 C-152.09344276 202.57810913 -153.25681098 198.66053457 -154.41796875 194.7421875 C-154.75183594 193.63101563 -155.08570313 192.51984375 -155.4296875 191.375 C-155.90341797 189.77011719 -155.90341797 189.77011719 -156.38671875 188.1328125 C-156.67998047 187.14829102 -156.97324219 186.16376953 -157.27539062 185.14941406 C-157.91796875 182.4921875 -157.91796875 182.4921875 -157.91796875 178.4921875 C-153.08276464 173.79138824 -149.47840862 172.92969022 -142.83648682 172.977005 C-141.8166571 173.00908554 -140.79682739 173.04116608 -139.74609375 173.07421875 C-138.13054596 173.09194588 -138.13054596 173.09194588 -136.48236084 173.11003113 C-133.04338671 173.15108512 -129.60626386 173.22572118 -126.16796875 173.3046875 C-110.89683865 173.5899147 -96.067241 173.529768 -80.91796875 171.4921875 C-79.66483887 171.34031982 -78.41170898 171.18845215 -77.12060547 171.03198242 C-32.53870327 165.590017 27.69000845 154.38389043 58.08203125 117.4921875 C64.3933446 107.76054949 67.16555173 99.12288834 66.08203125 87.4921875 C64.29242871 79.94799475 60.14101567 74.23058098 55.08203125 68.4921875 C54.52 67.83605469 53.95796875 67.17992187 53.37890625 66.50390625 C35.58777635 47.20439795 7.77729318 38.18628745 -16.56542969 30.50048828 C-17.30420853 30.26165924 -18.04298737 30.0228302 -18.80415344 29.77676392 C-20.19645101 29.32755117 -21.59284347 28.89077373 -22.99357605 28.46859741 C-25.75921925 27.57006902 -27.57880596 26.94386628 -29.35375977 24.58007812 C-29.91796875 22.4921875 -29.91796875 22.4921875 -29.91796875 18.4921875 C-28.28491211 16.83227539 -28.28491211 16.83227539 -26.0078125 15.21484375 C-25.18216797 14.61865234 -24.35652344 14.02246094 -23.50585938 13.40820312 C-22.63123047 12.79654297 -21.75660156 12.18488281 -20.85546875 11.5546875 C-19.58413086 10.64299805 -19.58413086 10.64299805 -18.28710938 9.71289062 C-16.61540734 8.51623596 -14.93471999 7.33202452 -13.24487305 6.16113281 C-10.94127923 4.56055698 -10.94127923 4.56055698 -9.02270508 2.86230469 C-5.70498703 0.06674565 -4.37661784 -0.56725854 0 0 Z " fill="#00BAEF" transform="translate(380.91796875,177.5078125)"/>
<path d="M0 0 C9.14778394 -1.17981466 15.89022743 -1.05855036 23.48608398 4.60131836 C26.52103029 7.08403285 29.4561841 9.66547944 32.375 12.28320312 C36.39172707 15.74468414 40.71626342 18.77792207 45.02587891 21.86083984 C46.5879325 22.98233858 48.1467401 24.10837769 49.70166016 25.23974609 C50.35690674 25.710979 51.01215332 26.18221191 51.68725586 26.66772461 C54.21783313 28.70432247 56.44840953 30.9733843 58.71337891 33.29833984 C57.54282959 33.28786621 56.37228027 33.27739258 55.16625977 33.26660156 C20.48599062 32.98502032 -13.11584783 33.99494348 -47.28662109 40.29833984 C-48.55723389 40.51780273 -48.55723389 40.51780273 -49.85351562 40.74169922 C-84.44901989 46.74241622 -128.10227135 61.82350772 -151.28662109 89.29833984 C-157.93346119 99.1051531 -160.40947621 106.42249572 -159.28662109 118.29833984 C-155.5994411 132.88518364 -144.73089251 141.83914245 -132.28662109 149.29833984 C-126.44390457 152.6487292 -120.48901751 155.84231694 -114.35693359 158.63037109 C-110.23910673 160.86740935 -106.74945417 163.6875291 -103.09912109 166.61083984 C-93.65655631 174.06585679 -84.00838084 181.21314308 -74.28662109 188.29833984 C-73.65949219 188.75595703 -73.03236328 189.21357422 -72.38623047 189.68505859 C-69.35697549 191.8949528 -66.32441855 194.10020326 -63.28662109 196.29833984 C-63.87677295 201.80642381 -64.85325878 206.94712053 -66.28662109 212.29833984 C-105.27368519 208.28824182 -151.24104887 185.87330272 -176.63427734 155.51318359 C-188.48607541 139.62673087 -193.96207388 122.98812386 -192.28662109 103.29833984 C-188.38870671 80.44769207 -172.51892187 61.60106286 -154.20458984 48.38623047 C-129.2927412 30.82018335 -100.79764698 19.23350384 -71.31494141 11.81152344 C-69.3813045 11.32229561 -67.45479345 10.80515548 -65.52880859 10.28662109 C-45.80053432 5.244951 -24.66562596 1.96607008 -4.35839844 0.47558594 C-2.90229436 0.35101234 -1.44914091 0.1890722 0 0 Z " fill="#00BAEF" transform="translate(224.28662109375,159.70166015625)"/>
<path d="M0 0 C0.66 0 1.32 0 2 0 C3.39664465 4.64558985 4.79242455 9.29143873 6.1875 13.9375 C6.39386078 14.62472137 6.60022156 15.31194275 6.81283569 16.01998901 C9.36338402 24.5162161 11.90462065 33.01482046 14.38623047 41.53149414 C15.94527502 46.86663023 17.60558554 52.16763866 19.30078125 57.4609375 C20 60 20 60 20 63 C39.8 63 59.6 63 80 63 C76.81410471 66.18589529 74.09486437 68.83796782 70.5859375 71.49609375 C69.7511084 72.13087646 68.9162793 72.76565918 68.05615234 73.41967773 C67.17137207 74.08555908 66.2865918 74.75144043 65.375 75.4375 C64.45799316 76.13109619 63.54098633 76.82469238 62.59619141 77.53930664 C59.73513778 79.69871742 56.86854132 81.85054806 54 84 C53.07960937 84.6909375 52.15921875 85.381875 51.2109375 86.09375 C48.60331037 88.04759165 45.99054952 89.99428051 43.375 91.9375 C42.57626465 92.53425537 41.7775293 93.13101074 40.95458984 93.74584961 C39.84398193 94.56581421 39.84398193 94.56581421 38.7109375 95.40234375 C38.06431152 95.88179443 37.41768555 96.36124512 36.75146484 96.85522461 C35 98 35 98 32 99 C33.12919704 102.90369409 34.25962975 106.80702848 35.39093018 110.71011353 C35.79617075 112.10892243 36.20107933 113.50782756 36.60565186 114.90682983 C38.83543994 122.61681523 41.08417719 130.31960173 43.4140625 138 C43.78660156 139.23387451 44.15914063 140.46774902 44.54296875 141.73901367 C45.25561954 144.09259437 45.97422378 146.4443819 46.69921875 148.79418945 C47.01761719 149.84823975 47.33601563 150.90229004 47.6640625 151.98828125 C48.08872803 153.37333862 48.08872803 153.37333862 48.52197266 154.78637695 C49 157 49 157 48 159 C47.55422607 158.64921387 47.10845215 158.29842773 46.64916992 157.93701172 C37.09091202 150.42808128 27.45795346 143.04511715 17.63549805 135.88427734 C16.89855713 135.34625488 16.16161621 134.80823242 15.40234375 134.25390625 C14.68030762 133.73199707 13.95827148 133.21008789 13.21435547 132.67236328 C11.64342619 131.48593929 10.11432369 130.24320875 8.61767578 128.96435547 C7.83763184 128.3045166 7.05758789 127.64467773 6.25390625 126.96484375 C5.55724854 126.35116943 4.86059082 125.73749512 4.14282227 125.10522461 C1.98486334 123.68723087 1.98486334 123.68723087 -0.62670898 124.71020508 C-3.27415507 126.14899303 -5.34654747 127.77583592 -7.625 129.75 C-12.72641969 134.03105625 -17.99780811 138.00934106 -23.375 141.9375 C-31.00529884 147.5160108 -38.54396867 153.19045314 -46 159 C-47 157 -47 157 -46.55029297 155.0390625 C-46.28361816 154.24242187 -46.01694336 153.44578125 -45.7421875 152.625 C-45.44876465 151.73135742 -45.1553418 150.83771484 -44.85302734 149.91699219 C-44.53027832 148.95438477 -44.2075293 147.99177734 -43.875 147 C-40.8705633 137.81189173 -38.13377387 128.59578391 -35.61474609 119.26464844 C-34.49218655 115.12927817 -33.33738597 111.00283764 -32.1875 106.875 C-31.76419459 105.35159815 -31.34100495 103.82816413 -30.91796875 102.3046875 C-30.61503906 101.21414063 -30.31210938 100.12359375 -30 99 C-30.58144775 98.72559082 -31.16289551 98.45118164 -31.76196289 98.16845703 C-33.94812221 97.02708488 -35.82745021 95.7694546 -37.80859375 94.3046875 C-38.54585693 93.76118652 -39.28312012 93.21768555 -40.04272461 92.65771484 C-40.83300049 92.06941895 -41.62327637 91.48112305 -42.4375 90.875 C-43.26064697 90.26479004 -44.08379395 89.65458008 -44.93188477 89.02587891 C-51.45820805 84.17481077 -57.95629667 79.28615206 -64.4375 74.375 C-65.33073975 73.70065918 -66.22397949 73.02631836 -67.14428711 72.33154297 C-67.9822583 71.69361816 -68.82022949 71.05569336 -69.68359375 70.3984375 C-70.79045532 69.55804932 -70.79045532 69.55804932 -71.91967773 68.70068359 C-74.07063383 66.94225616 -76.03547981 64.96452019 -78 63 C-58.2 63 -38.4 63 -18 63 C-17.34 59.7 -16.68 56.4 -16 53 C-15.31992019 50.7967452 -14.5925858 48.60736323 -13.8125 46.4375 C-11.02011344 38.42660748 -8.79020099 30.27215697 -6.53222656 22.09765625 C-4.48276305 14.68788321 -2.34390146 7.32287226 0 0 Z " fill="#F9DF00" transform="translate(191,257)"/>
<path d="M0 0 C0.66 0 1.32 0 2 0 C2.27972656 0.96035156 2.55945313 1.92070313 2.84765625 2.91015625 C5.32671409 11.39336354 7.85846063 19.85914012 10.4375 28.3125 C10.87763428 29.75749878 10.87763428 29.75749878 11.32666016 31.23168945 C12.51469271 35.13164853 13.70294935 39.03151802 14.8984375 42.92919922 C15.74847395 45.70169089 16.59343126 48.47568669 17.4375 51.25 C17.696521 52.08958252 17.95554199 52.92916504 18.22241211 53.79418945 C18.45710205 54.56851318 18.69179199 55.34283691 18.93359375 56.140625 C19.14040771 56.81641602 19.34722168 57.49220703 19.56030273 58.18847656 C20 60 20 60 20 63 C39.8 63 59.6 63 80 63 C76.81410471 66.18589529 74.09486437 68.83796782 70.5859375 71.49609375 C69.7511084 72.13087646 68.9162793 72.76565918 68.05615234 73.41967773 C67.17137207 74.08555908 66.2865918 74.75144043 65.375 75.4375 C64.45799316 76.13109619 63.54098633 76.82469238 62.59619141 77.53930664 C59.73513778 79.69871742 56.86854132 81.85054806 54 84 C53.07960938 84.6909375 52.15921875 85.381875 51.2109375 86.09375 C48.60331037 88.04759165 45.99054952 89.99428051 43.375 91.9375 C42.57626465 92.53425537 41.7775293 93.13101074 40.95458984 93.74584961 C39.84398193 94.56581421 39.84398193 94.56581421 38.7109375 95.40234375 C38.06431152 95.88179443 37.41768555 96.36124512 36.75146484 96.85522461 C35 98 35 98 32 99 C32.76754393 101.7301246 33.5386533 104.45915814 34.3125 107.1875 C34.56523682 108.07993408 34.81797363 108.97236816 35.07836914 109.8918457 C36.95473037 116.46691249 38.90260381 123.01816678 40.8828125 129.5625 C41.39031272 131.24582109 41.89771783 132.92917085 42.4050293 134.61254883 C43.17083028 137.15325328 43.93919465 139.69303943 44.71548462 142.2305603 C45.45087373 144.63488302 46.17738365 147.04173449 46.90234375 149.44921875 C47.24249008 150.54792297 47.24249008 150.54792297 47.58950806 151.66882324 C49.11365942 156.77268116 49.11365942 156.77268116 48 159 C47.55422607 158.64921387 47.10845215 158.29842773 46.64916992 157.93701172 C37.09091202 150.42808128 27.45795346 143.04511715 17.63549805 135.88427734 C16.89855713 135.34625488 16.16161621 134.80823242 15.40234375 134.25390625 C14.68030762 133.73199707 13.95827148 133.21008789 13.21435547 132.67236328 C11.64342619 131.48593929 10.11432369 130.24320875 8.61767578 128.96435547 C7.83763184 128.3045166 7.05758789 127.64467773 6.25390625 126.96484375 C5.55724854 126.35116943 4.86059082 125.73749512 4.14282227 125.10522461 C1.99523261 123.69577334 1.99523261 123.69577334 -0.57202148 124.66918945 C-3.90087313 126.49378174 -6.72452368 128.82657058 -9.625 131.25 C-15.58951986 136.12650968 -21.6696368 140.80881244 -27.875 145.375 C-28.64666504 145.94508789 -29.41833008 146.51517578 -30.21337891 147.10253906 C-35.37731909 150.88891218 -40.64391623 154.49117001 -46 158 C-44.84670302 150.72635583 -43.17249556 143.90648217 -40.8125 136.9375 C-36.69538811 124.42895551 -33.32281473 111.73872839 -30 99 C-30.58144775 98.72559082 -31.16289551 98.45118164 -31.76196289 98.16845703 C-33.94812221 97.02708488 -35.82745021 95.7694546 -37.80859375 94.3046875 C-38.54585693 93.76118652 -39.28312012 93.21768555 -40.04272461 92.65771484 C-40.83300049 92.06941895 -41.62327637 91.48112305 -42.4375 90.875 C-43.26064697 90.26479004 -44.08379395 89.65458008 -44.93188477 89.02587891 C-51.45820805 84.17481077 -57.95629667 79.28615206 -64.4375 74.375 C-65.33073975 73.70065918 -66.22397949 73.02631836 -67.14428711 72.33154297 C-67.9822583 71.69361816 -68.82022949 71.05569336 -69.68359375 70.3984375 C-70.79045532 69.55804932 -70.79045532 69.55804932 -71.91967773 68.70068359 C-74.07063383 66.94225616 -76.03547981 64.96452019 -78 63 C-58.2 63 -38.4 63 -18 63 C-17.34 59.7 -16.68 56.4 -16 53 C-15.3154888 50.49150523 -14.59313801 47.9929396 -13.828125 45.5078125 C-13.62494659 44.84268143 -13.42176819 44.17755035 -13.21243286 43.49226379 C-12.56268246 41.3684655 -11.90640122 39.24675098 -11.25 37.125 C-10.7997797 35.65713975 -10.3500761 34.18912093 -9.90087891 32.72094727 C-9.01353602 29.82170397 -8.12420858 26.92308204 -7.23339844 24.02490234 C-5.58957829 18.6697361 -3.97903672 13.30469921 -2.375 7.9375 C-2.12782227 7.1120166 -1.88064453 6.2865332 -1.62597656 5.43603516 C-1.08349261 3.6241706 -0.54165235 1.81211333 0 0 Z " fill="#F9DF00" transform="translate(319,97)"/>
</svg>
